<?xml version="1.0" encoding="utf-8"?>
<!-- Generator: Adobe Illustrator 22.1.0, SVG Export Plug-In . SVG Version: 6.00 Build 0)  -->
<svg version="1.1" xmlns="http://www.w3.org/2000/svg" xmlns:xlink="http://www.w3.org/1999/xlink" x="0px" y="0px"
	 viewBox="0 0 108 108" style="enable-background:new 0 0 108 108;" xml:space="preserve">
<style type="text/css">
	.st0{fill:#404040;}
	.st1{fill:#6363E0;}
	.st2{fill:#27B46E;}
	.st3{fill:#CC4B4B;}
	.st4{fill:#6CC4CC;}
	.st5{fill:#F5F5F5;}
	.st6{opacity:3.000000e-02;}
	.st7{opacity:0.25;}
	.st8{fill:#FFFFFF;}
	.st9{opacity:0.65;}
	.st10{fill:none;stroke:#FFFFFF;stroke-width:4;stroke-miterlimit:10;}
	.st11{fill:#9E9E9E;}
	.st12{fill:none;stroke:#27B46E;stroke-width:5;stroke-miterlimit:10;}
	.st13{fill:#474747;}
	.st14{fill:none;stroke:#000000;stroke-width:3;stroke-miterlimit:10;}
	.st15{opacity:0.1;}
	.st16{fill:none;stroke:#F5F5F5;stroke-width:4;stroke-miterlimit:10;}
	.st17{fill:url(#SVGID_1_);stroke:#CC4B4B;stroke-width:2.9139;stroke-miterlimit:10;}
	.st18{fill:none;stroke:#FFFFFF;stroke-width:4.1883;stroke-miterlimit:10;}
	.st19{fill:url(#SVGID_2_);stroke:#6363E0;stroke-width:2.9139;stroke-miterlimit:10;}
	.st20{fill:#CECECE;}
	.st21{fill:url(#SVGID_3_);stroke:#27B46E;stroke-width:2.9139;stroke-miterlimit:10;}
	.st22{fill:url(#SVGID_4_);stroke:#6CC4CC;stroke-width:2.9113;stroke-miterlimit:10;}
	.st23{clip-path:url(#SVGID_6_);fill:#CC4B4B;}
	.st24{clip-path:url(#SVGID_6_);fill:#6CC4CC;}
	.st25{clip-path:url(#SVGID_6_);fill:#27B46E;}
	.st26{clip-path:url(#SVGID_6_);fill:#6363E0;}
	.st27{fill:#EAEAEA;}
	.st28{fill:none;stroke:#404040;stroke-width:4;stroke-miterlimit:10;}
	.st29{opacity:0.39;}
	.st30{clip-path:url(#SVGID_8_);fill:#CC4B4B;}
	.st31{clip-path:url(#SVGID_8_);fill:#6CC4CC;}
	.st32{clip-path:url(#SVGID_8_);fill:#27B46E;}
	.st33{clip-path:url(#SVGID_8_);fill:#6363E0;}
	.st34{fill:none;stroke:#CC4B4B;stroke-width:5;stroke-miterlimit:10;}
	.st35{fill:url(#SVGID_9_);stroke:#CC4B4B;stroke-width:2.9139;stroke-miterlimit:10;}
	.st36{fill:none;stroke:#6363E0;stroke-width:5;stroke-miterlimit:10;}
	.st37{fill:url(#SVGID_10_);stroke:#6363E0;stroke-width:2.9139;stroke-miterlimit:10;}
	.st38{fill:url(#SVGID_11_);stroke:#27B46E;stroke-width:2.9139;stroke-miterlimit:10;}
	.st39{fill:url(#SVGID_12_);stroke:#6CC4CC;stroke-width:2.9113;stroke-miterlimit:10;}
	.st40{display:none;}
	.st41{display:inline;}
	.st42{fill:none;stroke:#6CC4CC;stroke-width:5;stroke-miterlimit:10;}
	.st43{stroke:#FFFFFF;stroke-width:23;stroke-miterlimit:10;}
	.st44{display:inline;fill:#6CC4CC;}
	.st45{fill:none;stroke:#000000;stroke-width:2;stroke-miterlimit:10;}
	.st46{opacity:0.55;}
	.st47{opacity:0.35;}
	.st48{fill:none;stroke:#000000;stroke-width:2.1305;stroke-miterlimit:10;}
	.st49{fill:none;stroke:#000000;stroke-width:0.8467;stroke-miterlimit:10;}
	.st50{opacity:0.33;fill:none;stroke:#000000;stroke-width:0.8467;stroke-miterlimit:10;}
	.st51{fill:none;stroke:#000000;stroke-miterlimit:10;}
	.st52{display:inline;fill:none;stroke:#000000;stroke-width:0.739;stroke-miterlimit:10;}
	.st53{fill:none;stroke:#000000;stroke-width:1.0965;stroke-miterlimit:10;}
	.st54{display:inline;fill:none;stroke:#000000;stroke-miterlimit:10;}
	.st55{fill:none;stroke:#000000;stroke-width:4;stroke-miterlimit:10;}
</style>
<g id="Farben_und_schriften">
	<g id="colors">
	</g>
	<g id="Responsive_Grid">
	</g>
	<g id="icons">
		<g id="export">
			<g>
				<path class="st11" d="M108,54.8c-0.7,1-1.2,2-2,2.9c-7.8,8.4-15.7,16.7-23.6,25c-1.2,1.2-2.4,2-4.2,1.7
					c-2.8-0.5-4.2-3.8-2.6-6.2c0.3-0.4,0.7-0.8,1-1.2c7-7.5,14.1-14.9,21.1-22.4c0.2-0.2,0.4-0.4,0.6-0.7c-0.2-0.3-0.4-0.5-0.6-0.7
					c-7.1-7.5-14.1-15-21.2-22.5c-1-1.1-1.7-2.3-1.5-3.9c0.3-1.5,1.1-2.6,2.6-3.2c1.5-0.5,2.8-0.3,4,0.8c0.3,0.2,0.6,0.5,0.8,0.8
					c7.8,8.3,15.6,16.5,23.4,24.9c0.8,0.9,1.4,2,2.1,3C108,53.7,108,54.3,108,54.8z"/>
				<path class="st11" d="M44.1,92.2c0.4-2.8,0.9-5.9,1.4-9.1c1.4-9,2.7-18,4.1-27c1.4-9,2.7-17.9,4.1-26.9
					c0.7-4.9,1.5-9.7,2.2-14.6c0.3-2.1,1.8-3.5,3.8-3.6c1.9-0.1,3.6,1,4.1,2.8c0.2,0.7,0.2,1.5,0.1,2.3c-1.6,10.8-3.3,21.5-4.9,32.3
					c-1.5,9.9-3,19.8-4.5,29.7c-0.8,5.1-1.5,10.1-2.3,15.2c-0.4,2.3-2.2,3.7-4.4,3.5C45.5,96.7,44,94.9,44.1,92.2z"/>
				<path class="st11" d="M9.6,54c6.1,6.4,12,12.7,18,19c1.4,1.5,2.9,3,4.3,4.6c1.1,1.2,1.5,2.7,0.8,4.3c-0.6,1.5-1.8,2.4-3.5,2.5
					c-1.4,0.1-2.6-0.5-3.5-1.5c-2.9-3.1-5.8-6.2-8.8-9.3C11.9,68.2,6.8,62.8,1.7,57.4c-2.3-2.4-2.3-4.4,0-6.8
					c8-8.5,16.1-17,24.1-25.5c1.3-1.4,2.8-2,4.5-1.4c1.6,0.5,2.5,1.7,2.7,3.3c0.2,1.5-0.4,2.6-1.4,3.7c-5,5.3-9.9,10.5-14.9,15.8
					C14.4,49,12,51.5,9.6,54z"/>
			</g>
		</g>
		<g id="creation">
		</g>
	</g>
</g>
<g id="Mockup_Mobile_Darkmode__x28_MMD_x29_">
	<g id="Contact_me_MMD">
	</g>
	<g id="About_me_MMD">
	</g>
	<g id="Projects_MMD">
		<g id="Programmierung_MMMDL">
		</g>
		<g id="Video_Games_MMD">
		</g>
		<g id="Musik_x2F_Sound_Design_MMD">
		</g>
		<g id="Grafik_Design_MMD">
		</g>
	</g>
	<g id="Startseite_MMD">
	</g>
</g>
<g id="Mockup_Mobile_Lightmode__x28_MML_x29_">
	<g id="Contact_me_MML">
	</g>
	<g id="About_me_MML">
	</g>
	<g id="Projects_MML">
		<g id="Programmierung_MML">
		</g>
		<g id="Video_Games_MML">
		</g>
		<g id="Musik_x2F_Sound_Design_MML">
		</g>
		<g id="Grafik_Design_MML">
		</g>
	</g>
	<g id="Startseite_MML">
	</g>
</g>
<g id="Mockup_Desktop_Darkmode__x28_MDL_x29_">
	<g id="Contact_me_MDL_1_">
	</g>
	<g id="About_me_MDL_1_">
	</g>
	<g id="Projects_MDL_1_">
		<g id="Programmierung_MDL_1_">
		</g>
		<g id="Video_Games_MDL_1_">
		</g>
		<g id="Musik_x2F_Sound_Design_MDL_1_">
		</g>
		<g id="Grafik_Design_MDL_1_">
		</g>
	</g>
	<g id="Startseite_MDL_1_">
	</g>
</g>
<g id="Mockup_Desktop_Lightmode_x28_MDL_x29_">
	<g id="Contact_me_MDL">
	</g>
	<g id="About_me_MDL">
	</g>
	<g id="Projects_MDL">
		<g id="Programmierung_MDL">
		</g>
		<g id="Video_Games_MDL">
		</g>
		<g id="Musik_x2F_Sound_Design_MDL">
		</g>
		<g id="Grafik_Design_MDL">
		</g>
	</g>
	<g id="Startseite_MDL">
	</g>
</g>
<g id="Wireframe_Mobile__x28_WM_x29_">
	<g id="Contact_me_WM">
	</g>
	<g id="About_me_WM">
	</g>
	<g id="Projects_WM">
		<g id="Programmierung_WM">
		</g>
		<g id="Video_Games_WM">
		</g>
		<g id="Musik_x2F_Sound_Design_WM">
		</g>
		<g id="Grafik_Design_WM">
		</g>
	</g>
	<g id="Startseite_WM">
	</g>
</g>
<g id="Wireframe_Desktop__x28_WD_x29_">
	<g id="Contact_me_WD">
	</g>
	<g id="About_me_WD">
	</g>
	<g id="Projects_WD">
		<g id="Programmierung_WD">
		</g>
		<g id="Video_Games_WD">
		</g>
		<g id="Musik_x2F_Sound_Design_WD">
		</g>
		<g id="Grafik_Design_WD">
		</g>
	</g>
	<g id="Startseite_WD">
	</g>
</g>
</svg>
