<?xml version="1.0" encoding="utf-8"?>
<!-- Generator: Adobe Illustrator 22.1.0, SVG Export Plug-In . SVG Version: 6.00 Build 0)  -->
<svg version="1.1" xmlns="http://www.w3.org/2000/svg" xmlns:xlink="http://www.w3.org/1999/xlink" x="0px" y="0px"
	 viewBox="0 0 108 108" style="enable-background:new 0 0 108 108;" xml:space="preserve">
<style type="text/css">
	.st0{fill:#404040;}
	.st1{fill:#6363E0;}
	.st2{fill:#27B46E;}
	.st3{fill:#CC4B4B;}
	.st4{fill:#6CC4CC;}
	.st5{fill:#F5F5F5;}
	.st6{opacity:3.000000e-02;}
	.st7{opacity:0.25;}
	.st8{fill:#FFFFFF;}
	.st9{opacity:0.65;}
	.st10{fill:none;stroke:#FFFFFF;stroke-width:4;stroke-miterlimit:10;}
	.st11{fill:#9E9E9E;}
	.st12{fill:none;stroke:#27B46E;stroke-width:5;stroke-miterlimit:10;}
	.st13{fill:#474747;}
	.st14{fill:none;stroke:#000000;stroke-width:3;stroke-miterlimit:10;}
	.st15{opacity:0.1;}
	.st16{fill:none;stroke:#F5F5F5;stroke-width:4;stroke-miterlimit:10;}
	.st17{fill:url(#SVGID_1_);stroke:#CC4B4B;stroke-width:2.9139;stroke-miterlimit:10;}
	.st18{fill:none;stroke:#FFFFFF;stroke-width:4.1883;stroke-miterlimit:10;}
	.st19{fill:url(#SVGID_2_);stroke:#6363E0;stroke-width:2.9139;stroke-miterlimit:10;}
	.st20{fill:#CECECE;}
	.st21{fill:url(#SVGID_3_);stroke:#27B46E;stroke-width:2.9139;stroke-miterlimit:10;}
	.st22{fill:url(#SVGID_4_);stroke:#6CC4CC;stroke-width:2.9113;stroke-miterlimit:10;}
	.st23{clip-path:url(#SVGID_6_);fill:#CC4B4B;}
	.st24{clip-path:url(#SVGID_6_);fill:#6CC4CC;}
	.st25{clip-path:url(#SVGID_6_);fill:#27B46E;}
	.st26{clip-path:url(#SVGID_6_);fill:#6363E0;}
	.st27{fill:#EAEAEA;}
	.st28{fill:none;stroke:#404040;stroke-width:4;stroke-miterlimit:10;}
	.st29{opacity:0.39;}
	.st30{clip-path:url(#SVGID_8_);fill:#CC4B4B;}
	.st31{clip-path:url(#SVGID_8_);fill:#6CC4CC;}
	.st32{clip-path:url(#SVGID_8_);fill:#27B46E;}
	.st33{clip-path:url(#SVGID_8_);fill:#6363E0;}
	.st34{fill:none;stroke:#CC4B4B;stroke-width:5;stroke-miterlimit:10;}
	.st35{fill:url(#SVGID_9_);stroke:#CC4B4B;stroke-width:2.9139;stroke-miterlimit:10;}
	.st36{fill:none;stroke:#6363E0;stroke-width:5;stroke-miterlimit:10;}
	.st37{fill:url(#SVGID_10_);stroke:#6363E0;stroke-width:2.9139;stroke-miterlimit:10;}
	.st38{fill:url(#SVGID_11_);stroke:#27B46E;stroke-width:2.9139;stroke-miterlimit:10;}
	.st39{fill:url(#SVGID_12_);stroke:#6CC4CC;stroke-width:2.9113;stroke-miterlimit:10;}
	.st40{display:none;}
	.st41{display:inline;}
	.st42{fill:none;stroke:#6CC4CC;stroke-width:5;stroke-miterlimit:10;}
	.st43{stroke:#FFFFFF;stroke-width:23;stroke-miterlimit:10;}
	.st44{display:inline;fill:#6CC4CC;}
	.st45{fill:none;stroke:#000000;stroke-width:2;stroke-miterlimit:10;}
	.st46{opacity:0.55;}
	.st47{opacity:0.35;}
	.st48{fill:none;stroke:#000000;stroke-width:2.1305;stroke-miterlimit:10;}
	.st49{fill:none;stroke:#000000;stroke-width:0.8467;stroke-miterlimit:10;}
	.st50{opacity:0.33;fill:none;stroke:#000000;stroke-width:0.8467;stroke-miterlimit:10;}
	.st51{fill:none;stroke:#000000;stroke-miterlimit:10;}
	.st52{display:inline;fill:none;stroke:#000000;stroke-width:0.739;stroke-miterlimit:10;}
	.st53{fill:none;stroke:#000000;stroke-width:1.0965;stroke-miterlimit:10;}
	.st54{display:inline;fill:none;stroke:#000000;stroke-miterlimit:10;}
	.st55{fill:none;stroke:#000000;stroke-width:4;stroke-miterlimit:10;}
</style>
<g id="Farben_und_schriften">
	<g id="colors">
	</g>
	<g id="Responsive_Grid">
	</g>
	<g id="icons">
		<g id="export">
			<g>
				<g>
					<path class="st11" d="M108,54c0,7.4,0,14.7,0,22.1c-0.1,17.8-14.1,31.8-31.8,31.9c-14.8,0.1-29.5,0.1-44.3,0
						C14.2,107.9,0.1,93.8,0.1,76.2C0,61.4,0,46.6,0.1,31.8C0.1,14.2,14.2,0.1,31.7,0C46.6,0,61.4,0,76.2,0
						c17.7,0.1,31.7,14.1,31.8,31.8C108,39.2,108,46.6,108,54z M9.9,53.9c0,7.5,0,14.9,0,22.4c0.1,12.2,9.7,21.9,21.9,21.9
						c14.7,0,29.4,0,44.1,0c12.6,0,22.2-9.6,22.2-22.2c0-14.6,0-29.2,0-43.8c0-12.6-9.6-22.2-22.2-22.2c-14.7,0-29.3,0-44,0
						c-12.4,0-22,9.7-22,22.1C9.8,39.3,9.9,46.6,9.9,53.9z"/>
					<path class="st11" d="M53.8,83.4C37.7,83.4,24.5,70,24.6,53.8C24.6,37.6,38,24.4,54.3,24.6c16.1,0.1,29.3,13.5,29.1,29.8
						C83.3,70.4,70,83.5,53.8,83.4z M54,34.4c-10.9,0-19.7,8.8-19.6,19.7c0,10.8,8.8,19.6,19.6,19.6c10.8,0,19.6-8.7,19.6-19.5
						C73.7,43.2,64.9,34.4,54,34.4z"/>
					<path class="st11" d="M83,20.6c2.5,0,4.5,2.1,4.4,4.5c0,2.4-2.1,4.4-4.6,4.4c-2.4-0.1-4.3-2.1-4.3-4.5
						C78.5,22.6,80.6,20.6,83,20.6z"/>
				</g>
			</g>
		</g>
		<g id="creation">
		</g>
	</g>
</g>
<g id="Mockup_Mobile_Darkmode__x28_MMD_x29_">
	<g id="Contact_me_MMD">
	</g>
	<g id="About_me_MMD">
	</g>
	<g id="Projects_MMD">
		<g id="Programmierung_MMMDL">
		</g>
		<g id="Video_Games_MMD">
		</g>
		<g id="Musik_x2F_Sound_Design_MMD">
		</g>
		<g id="Grafik_Design_MMD">
		</g>
	</g>
	<g id="Startseite_MMD">
	</g>
</g>
<g id="Mockup_Mobile_Lightmode__x28_MML_x29_">
	<g id="Contact_me_MML">
	</g>
	<g id="About_me_MML">
	</g>
	<g id="Projects_MML">
		<g id="Programmierung_MML">
		</g>
		<g id="Video_Games_MML">
		</g>
		<g id="Musik_x2F_Sound_Design_MML">
		</g>
		<g id="Grafik_Design_MML">
		</g>
	</g>
	<g id="Startseite_MML">
	</g>
</g>
<g id="Mockup_Desktop_Darkmode__x28_MDL_x29_">
	<g id="Contact_me_MDL_1_">
	</g>
	<g id="About_me_MDL_1_">
	</g>
	<g id="Projects_MDL_1_">
		<g id="Programmierung_MDL_1_">
		</g>
		<g id="Video_Games_MDL_1_">
		</g>
		<g id="Musik_x2F_Sound_Design_MDL_1_">
		</g>
		<g id="Grafik_Design_MDL_1_">
		</g>
	</g>
	<g id="Startseite_MDL_1_">
	</g>
</g>
<g id="Mockup_Desktop_Lightmode_x28_MDL_x29_">
	<g id="Contact_me_MDL">
	</g>
	<g id="About_me_MDL">
	</g>
	<g id="Projects_MDL">
		<g id="Programmierung_MDL">
		</g>
		<g id="Video_Games_MDL">
		</g>
		<g id="Musik_x2F_Sound_Design_MDL">
		</g>
		<g id="Grafik_Design_MDL">
		</g>
	</g>
	<g id="Startseite_MDL">
	</g>
</g>
<g id="Wireframe_Mobile__x28_WM_x29_">
	<g id="Contact_me_WM">
	</g>
	<g id="About_me_WM">
	</g>
	<g id="Projects_WM">
		<g id="Programmierung_WM">
		</g>
		<g id="Video_Games_WM">
		</g>
		<g id="Musik_x2F_Sound_Design_WM">
		</g>
		<g id="Grafik_Design_WM">
		</g>
	</g>
	<g id="Startseite_WM">
	</g>
</g>
<g id="Wireframe_Desktop__x28_WD_x29_">
	<g id="Contact_me_WD">
	</g>
	<g id="About_me_WD">
	</g>
	<g id="Projects_WD">
		<g id="Programmierung_WD">
		</g>
		<g id="Video_Games_WD">
		</g>
		<g id="Musik_x2F_Sound_Design_WD">
		</g>
		<g id="Grafik_Design_WD">
		</g>
	</g>
	<g id="Startseite_WD">
	</g>
</g>
</svg>
