<?xml version="1.0" encoding="utf-8"?>
<!-- Generator: Adobe Illustrator 22.1.0, SVG Export Plug-In . SVG Version: 6.00 Build 0)  -->
<svg version="1.1" xmlns="http://www.w3.org/2000/svg" xmlns:xlink="http://www.w3.org/1999/xlink" x="0px" y="0px"
	 viewBox="0 0 108 108" style="enable-background:new 0 0 108 108;" xml:space="preserve">
<style type="text/css">
	.st0{fill:#404040;}
	.st1{fill:#6363E0;}
	.st2{fill:#27B46E;}
	.st3{fill:#CC4B4B;}
	.st4{fill:#6CC4CC;}
	.st5{fill:#F5F5F5;}
	.st6{opacity:3.000000e-02;}
	.st7{fill:#F2F2F2;}
	.st8{opacity:0.25;}
	.st9{fill:#FFFFFF;}
	.st10{opacity:0.65;}
	.st11{fill:none;stroke:#FFFFFF;stroke-width:4;stroke-miterlimit:10;}
	.st12{fill:#9E9E9E;}
	.st13{fill:#474747;}
	.st14{fill:none;}
	.st15{fill:none;stroke:#27B46E;stroke-width:5;stroke-miterlimit:10;}
	.st16{fill:none;stroke:#000000;stroke-width:3;stroke-miterlimit:10;}
	.st17{opacity:0.1;}
	.st18{fill:none;stroke:#F5F5F5;stroke-width:4;stroke-miterlimit:10;}
	.st19{fill:url(#SVGID_1_);stroke:#CC4B4B;stroke-width:2.9139;stroke-miterlimit:10;}
	.st20{fill:none;stroke:#FFFFFF;stroke-width:4.1883;stroke-miterlimit:10;}
	.st21{fill:url(#SVGID_2_);stroke:#6363E0;stroke-width:2.9139;stroke-miterlimit:10;}
	.st22{fill:#CECECE;}
	.st23{fill:url(#SVGID_3_);stroke:#27B46E;stroke-width:2.9139;stroke-miterlimit:10;}
	.st24{fill:url(#SVGID_4_);stroke:#6CC4CC;stroke-width:2.9113;stroke-miterlimit:10;}
	.st25{clip-path:url(#SVGID_6_);fill:#CC4B4B;}
	.st26{clip-path:url(#SVGID_6_);fill:#6CC4CC;}
	.st27{clip-path:url(#SVGID_6_);fill:#27B46E;}
	.st28{clip-path:url(#SVGID_6_);fill:#6363E0;}
	.st29{fill:#EAEAEA;}
	.st30{fill:none;stroke:#404040;stroke-width:4;stroke-miterlimit:10;}
	.st31{opacity:0.39;}
	.st32{clip-path:url(#SVGID_8_);fill:#CC4B4B;}
	.st33{clip-path:url(#SVGID_8_);fill:#6CC4CC;}
	.st34{clip-path:url(#SVGID_8_);fill:#27B46E;}
	.st35{clip-path:url(#SVGID_8_);fill:#6363E0;}
	.st36{fill:none;stroke:#CC4B4B;stroke-width:5;stroke-miterlimit:10;}
	.st37{fill:url(#SVGID_9_);stroke:#CC4B4B;stroke-width:2.9139;stroke-miterlimit:10;}
	.st38{fill:none;stroke:#6363E0;stroke-width:5;stroke-miterlimit:10;}
	.st39{fill:url(#SVGID_10_);stroke:#6363E0;stroke-width:2.9139;stroke-miterlimit:10;}
	.st40{fill:url(#SVGID_11_);stroke:#27B46E;stroke-width:2.9139;stroke-miterlimit:10;}
	.st41{fill:url(#SVGID_12_);stroke:#6CC4CC;stroke-width:2.9113;stroke-miterlimit:10;}
	.st42{display:none;}
	.st43{display:inline;}
	.st44{clip-path:url(#SVGID_14_);}
	.st45{fill:none;stroke:#6CC4CC;stroke-width:5;stroke-miterlimit:10;}
	.st46{stroke:#FFFFFF;stroke-width:23;stroke-miterlimit:10;}
	.st47{display:inline;fill:#6CC4CC;}
	.st48{fill:none;stroke:#000000;stroke-width:2;stroke-miterlimit:10;}
	.st49{opacity:0.55;}
	.st50{opacity:0.35;}
	.st51{fill:none;stroke:#000000;stroke-width:2.1305;stroke-miterlimit:10;}
	.st52{fill:none;stroke:#000000;stroke-width:0.8467;stroke-miterlimit:10;}
	.st53{opacity:0.33;fill:none;stroke:#000000;stroke-width:0.8467;stroke-miterlimit:10;}
	.st54{fill:none;stroke:#000000;stroke-miterlimit:10;}
	.st55{display:inline;fill:none;stroke:#000000;stroke-width:0.739;stroke-miterlimit:10;}
	.st56{fill:none;stroke:#000000;stroke-width:1.0965;stroke-miterlimit:10;}
	.st57{display:inline;fill:none;stroke:#000000;stroke-miterlimit:10;}
	.st58{fill:none;stroke:#000000;stroke-width:4;stroke-miterlimit:10;}
</style>
<g id="Farben_und_schriften">
	<g id="colors">
	</g>
	<g id="Responsive_Grid">
	</g>
	<g id="icons">
		<g id="export">
			<rect x="0" y="0" width="108" height="108"/>
			<g>
				<path class="st9" d="M54.2,15.3c5.3,0,10.6,0,15.8,0c16.2,0.1,30.8,12.1,33.7,28c1.4,7.5,2.1,15.2,3.2,22.8
					c0.2,1.7,0.5,3.3,0.8,5c1.6,9.3-3.3,17.6-12.1,20.6c-8.9,3-17.8-0.6-22.1-9c-2-3.9-3.8-7.9-5.9-11.8c-0.4-0.7-1.5-1.4-2.3-1.4
					c-7.6-0.1-15.2,0-22.9-0.1c-1.4,0-1.9,0.6-2.4,1.7c-1.9,3.9-3.8,7.9-5.9,11.8c-3.6,7-10.7,10.8-18.1,9.8
					C7.8,91.4,1.6,86.2,0.3,78.3c-0.6-3.9-0.1-8,0.3-12c0.8-6.7,2.1-13.4,2.9-20.2c1.8-16.6,16.9-30.6,33.6-30.8
					C42.8,15.2,48.5,15.3,54.2,15.3C54.2,15.3,54.2,15.3,54.2,15.3z M53.9,23.1C53.9,23.1,53.9,23.1,53.9,23.1
					c-5.6,0-11.3-0.1-16.9,0.1c-12.8,0.5-23.7,10.4-25.5,23.1c-1,7.1-2,14.2-3,21.3c-0.4,2.7-1,5.5-0.8,8.2c0.5,5.1,4.1,8.4,9.2,9.2
					c4.6,0.7,8.3-1.3,10.6-6c2.4-4.8,4.8-9.5,7.1-14.3c1-2,2.4-2.9,4.7-2.9c9.3,0.1,18.6,0.2,27.9,0c3.6-0.1,5.5,1.2,6.9,4.4
					c2.1,4.7,4.5,9.4,6.9,13.9c2.3,4.3,7.1,6,11.9,4.4c4.6-1.5,7.8-6.1,7.2-10.3c-1.3-8.9-2.7-17.8-4-26.6
					C93.9,31.8,81.6,22.2,67.1,23C62.7,23.3,58.3,23.1,53.9,23.1z"/>
				<path class="st9" d="M65.4,38.6c2.4,0,3.9,1.4,4,3.7c0.1,2.3-1.6,4-4,3.9c-2.3,0-3.9-1.5-3.9-3.8C61.6,40.1,63.1,38.6,65.4,38.6
					z"/>
				<path class="st9" d="M77,34.6c0,2.4-1.7,4.1-3.9,4c-2.2-0.1-3.7-1.7-3.7-4c0-2.4,1.6-4,3.9-4C75.6,30.7,77,32.3,77,34.6z"/>
				<path class="st9" d="M80.9,38.6c2.4,0,4.1,1.6,4,3.9c0,2.2-1.6,3.8-3.9,3.8c-2.4,0-4.1-1.6-4-3.9C77,40.1,78.6,38.6,80.9,38.6z"
					/>
				<path class="st9" d="M77,50.1c0,2.4-1.4,3.9-3.7,3.9c-2.4,0-3.9-1.5-3.9-4c0-2.3,1.6-3.9,3.9-3.9C75.5,46.2,77,47.8,77,50.1z"/>
				<path class="st9" d="M38.5,46.3c1.4,0,2.8,0,4.1,0c2.2-0.1,3.7-1.6,3.6-3.8c0-2.1-1.4-3.6-3.5-3.8c-0.7-0.1-1.5,0-2.2,0
					c-0.6,0-1.3-0.1-2.2-0.1c0-0.9-0.1-1.6-0.1-2.2c0-0.7,0-1.5,0-2.2c-0.2-2.1-1.7-3.5-3.8-3.5c-2.2,0-3.7,1.4-3.8,3.6
					c-0.1,1.4,0,2.7,0,4.1c-3.3,0.4-7.8-1.1-7.8,3.9c0,5,4.5,3.5,7.7,4c0.4,3.3-1.1,7.7,4,7.7C39.7,54,38.1,49.5,38.5,46.3z"/>
			</g>
		</g>
		<g id="creation">
		</g>
	</g>
</g>
<g id="Mockup_Mobile_Darkmode__x28_MMD_x29_">
	<g id="Contact_me_MMD">
	</g>
	<g id="About_me_MMD">
	</g>
	<g id="Projects_MMD">
		<g id="Programmierung_MMMDL">
		</g>
		<g id="Video_Games_MMD">
		</g>
		<g id="Musik_x2F_Sound_Design_MMD">
		</g>
		<g id="Grafik_Design_MMD">
		</g>
	</g>
	<g id="Startseite_MMD">
	</g>
</g>
<g id="Mockup_Mobile_Lightmode__x28_MML_x29_">
	<g id="Contact_me_MML">
	</g>
	<g id="About_me_MML">
	</g>
	<g id="Projects_MML">
		<g id="Programmierung_MML">
		</g>
		<g id="Video_Games_MML">
		</g>
		<g id="Musik_x2F_Sound_Design_MML">
		</g>
		<g id="Grafik_Design_MML">
		</g>
	</g>
	<g id="Startseite_MML">
	</g>
</g>
<g id="Mockup_Desktop_Darkmode__x28_MDL_x29_">
	<g id="Contact_me_MDL_1_">
	</g>
	<g id="About_me_MDL_1_">
	</g>
	<g id="Projects_MDL_1_">
		<g id="Programmierung_MDL_1_">
		</g>
		<g id="Video_Games_MDL_1_">
		</g>
		<g id="Musik_x2F_Sound_Design_MDL_1_">
		</g>
		<g id="Grafik_Design_MDL_1_">
		</g>
	</g>
	<g id="Startseite_MDL_1_">
	</g>
</g>
<g id="Mockup_Desktop_Lightmode_x28_MDL_x29_">
	<g id="Contact_me_MDL">
	</g>
	<g id="About_me_MDL">
	</g>
	<g id="Projects_MDL">
		<g id="Programmierung_MDL">
		</g>
		<g id="Video_Games_MDL">
		</g>
		<g id="Musik_x2F_Sound_Design_MDL">
		</g>
		<g id="Grafik_Design_MDL">
		</g>
	</g>
	<g id="Startseite_MDL">
	</g>
</g>
<g id="Wireframe_Mobile__x28_WM_x29_">
	<g id="Contact_me_WM">
	</g>
	<g id="About_me_WM">
	</g>
	<g id="Projects_WM">
		<g id="Programmierung_WM">
		</g>
		<g id="Video_Games_WM">
		</g>
		<g id="Musik_x2F_Sound_Design_WM">
		</g>
		<g id="Grafik_Design_WM">
		</g>
	</g>
	<g id="Startseite_WM">
	</g>
</g>
<g id="Wireframe_Desktop__x28_WD_x29_">
	<g id="Contact_me_WD">
	</g>
	<g id="About_me_WD">
	</g>
	<g id="Projects_WD">
		<g id="Programmierung_WD">
		</g>
		<g id="Video_Games_WD">
		</g>
		<g id="Musik_x2F_Sound_Design_WD">
		</g>
		<g id="Grafik_Design_WD">
		</g>
	</g>
	<g id="Startseite_WD">
	</g>
</g>
</svg>
