<?xml version="1.0" encoding="utf-8"?>
<!-- Generator: Adobe Illustrator 22.1.0, SVG Export Plug-In . SVG Version: 6.00 Build 0)  -->
<svg version="1.1" xmlns="http://www.w3.org/2000/svg" xmlns:xlink="http://www.w3.org/1999/xlink" x="0px" y="0px"
	 viewBox="0 0 108 108" style="enable-background:new 0 0 108 108;" xml:space="preserve">
<style type="text/css">
	.st0{fill:#404040;}
	.st1{fill:#6363E0;}
	.st2{fill:#27B46E;}
	.st3{fill:#CC4B4B;}
	.st4{fill:#6CC4CC;}
	.st5{fill:#F5F5F5;}
	.st6{opacity:3.000000e-02;}
	.st7{fill:#F2F2F2;}
	.st8{opacity:0.25;}
	.st9{fill:#FFFFFF;}
	.st10{opacity:0.65;}
	.st11{fill:none;stroke:#FFFFFF;stroke-width:4;stroke-miterlimit:10;}
	.st12{fill:#9E9E9E;}
	.st13{fill:#474747;}
	.st14{fill:none;}
	.st15{fill:none;stroke:#27B46E;stroke-width:5;stroke-miterlimit:10;}
	.st16{fill:none;stroke:#000000;stroke-width:3;stroke-miterlimit:10;}
	.st17{opacity:0.1;}
	.st18{fill:none;stroke:#F5F5F5;stroke-width:4;stroke-miterlimit:10;}
	.st19{fill:url(#SVGID_1_);stroke:#CC4B4B;stroke-width:2.9139;stroke-miterlimit:10;}
	.st20{fill:none;stroke:#FFFFFF;stroke-width:4.1883;stroke-miterlimit:10;}
	.st21{fill:url(#SVGID_2_);stroke:#6363E0;stroke-width:2.9139;stroke-miterlimit:10;}
	.st22{fill:#CECECE;}
	.st23{fill:url(#SVGID_3_);stroke:#27B46E;stroke-width:2.9139;stroke-miterlimit:10;}
	.st24{fill:url(#SVGID_4_);stroke:#6CC4CC;stroke-width:2.9113;stroke-miterlimit:10;}
	.st25{clip-path:url(#SVGID_6_);fill:#CC4B4B;}
	.st26{clip-path:url(#SVGID_6_);fill:#6CC4CC;}
	.st27{clip-path:url(#SVGID_6_);fill:#27B46E;}
	.st28{clip-path:url(#SVGID_6_);fill:#6363E0;}
	.st29{fill:#EAEAEA;}
	.st30{fill:none;stroke:#404040;stroke-width:4;stroke-miterlimit:10;}
	.st31{opacity:0.39;}
	.st32{clip-path:url(#SVGID_8_);fill:#CC4B4B;}
	.st33{clip-path:url(#SVGID_8_);fill:#6CC4CC;}
	.st34{clip-path:url(#SVGID_8_);fill:#27B46E;}
	.st35{clip-path:url(#SVGID_8_);fill:#6363E0;}
	.st36{fill:none;stroke:#CC4B4B;stroke-width:5;stroke-miterlimit:10;}
	.st37{fill:url(#SVGID_9_);stroke:#CC4B4B;stroke-width:2.9139;stroke-miterlimit:10;}
	.st38{fill:none;stroke:#6363E0;stroke-width:5;stroke-miterlimit:10;}
	.st39{fill:url(#SVGID_10_);stroke:#6363E0;stroke-width:2.9139;stroke-miterlimit:10;}
	.st40{fill:url(#SVGID_11_);stroke:#27B46E;stroke-width:2.9139;stroke-miterlimit:10;}
	.st41{fill:url(#SVGID_12_);stroke:#6CC4CC;stroke-width:2.9113;stroke-miterlimit:10;}
	.st42{display:none;}
	.st43{display:inline;}
	.st44{clip-path:url(#SVGID_14_);}
	.st45{fill:none;stroke:#6CC4CC;stroke-width:5;stroke-miterlimit:10;}
	.st46{stroke:#FFFFFF;stroke-width:23;stroke-miterlimit:10;}
	.st47{display:inline;fill:#6CC4CC;}
	.st48{fill:none;stroke:#000000;stroke-width:2;stroke-miterlimit:10;}
	.st49{opacity:0.55;}
	.st50{opacity:0.35;}
	.st51{fill:none;stroke:#000000;stroke-width:2.1305;stroke-miterlimit:10;}
	.st52{fill:none;stroke:#000000;stroke-width:0.8467;stroke-miterlimit:10;}
	.st53{opacity:0.33;fill:none;stroke:#000000;stroke-width:0.8467;stroke-miterlimit:10;}
	.st54{fill:none;stroke:#000000;stroke-miterlimit:10;}
	.st55{display:inline;fill:none;stroke:#000000;stroke-width:0.739;stroke-miterlimit:10;}
	.st56{fill:none;stroke:#000000;stroke-width:1.0965;stroke-miterlimit:10;}
	.st57{display:inline;fill:none;stroke:#000000;stroke-miterlimit:10;}
	.st58{fill:none;stroke:#000000;stroke-width:4;stroke-miterlimit:10;}
</style>
<g id="Farben_und_schriften">
	<g id="colors">
	</g>
	<g id="Responsive_Grid">
	</g>
	<g id="icons">
		<g id="export">
			<rect x="0" width="108" height="108"/>
			<g>
				<path class="st9" d="M32.3,87c-1.1-1.1-2.5-1.1-3.6,0c-0.4,0.4-0.8,0.9-1.2,1.3C17,73.9,16.7,52.9,26.9,38.8
					c3.6,1.4,7,0.9,9.7-1.5c0.1-0.1,0.2-0.2,0.3-0.4c0.1-0.1,0.2-0.2,0.4-0.3c2.4-2.7,3-6,1.5-9.7c14.1-10.1,35.1-9.8,49.6,0.7
					c-0.5,0.4-0.9,0.8-1.3,1.2c-1.1,1.1-1.1,2.5,0,3.6c2.3,2.3,4.6,4.6,6.9,6.8c1.1,1,2.4,1.1,3.3,0.1l6.1-6.1l0,0
					c0.3-0.3,0.7-0.7,1-1c1-1,0.9-2.3-0.1-3.3c-0.6-0.6-1.1-1.1-1.7-1.7l0,0c-1.7-1.7-3.4-3.4-5.1-5.1c-1.3-1.3-2.5-1.3-3.8,0
					c-0.6,0.6-1.1,1.1-1.6,1.7l-0.3,0.3c-14-9.6-28.7-11.9-44.7-6.8c2-2,4-4,5.9-6c0.3-0.3,0.3-0.3,0.7-0.2c2.6,0.8,5.2-0.2,6.6-2.6
					c1.3-2.3,0.9-5.1-1-6.9c-1.8-1.8-4.6-2.1-6.8-0.8c-2.3,1.3-3.3,4-2.5,6.6c0,0.1,0,0.4,0,0.4c-4.3,4.3-8.6,8.6-12.9,12.9l-2,2
					c-2.1-1.1-4.3-1.5-6.5-1c-1.7,0.4-3.2,1.2-4.4,2.4c-1.2,1.2-2,2.7-2.4,4.4c-0.5,2.2-0.2,4.4,1,6.5l-2,2
					c-4.3,4.4-8.7,8.7-12.9,12.9c-0.1,0-0.3,0-0.4,0c-2.6-0.7-5.3,0.3-6.6,2.5c-1.3,2.2-1,5,0.8,6.8c1.8,1.9,4.7,2.3,6.9,1
					c2.3-1.3,3.4-4,2.6-6.6c-0.1-0.3-0.1-0.4,0.2-0.7c2-2,4-3.9,6-5.9c-5,16-2.8,30.6,6.8,44.7l-0.3,0.3c-0.6,0.5-1.2,1.1-1.7,1.6
					c-1.3,1.3-1.3,2.5,0,3.8c1.7,1.7,3.4,3.4,5.1,5.1l0,0c0.6,0.6,1.1,1.1,1.7,1.7c1.1,1,2.4,1.1,3.3,0.1c0.3-0.3,0.7-0.7,1-1l0,0
					l6.1-6.1c1-1,0.9-2.3-0.1-3.3C36.9,91.6,34.6,89.3,32.3,87z M95.6,27.1l3.5,3.5l-3.6,3.6l-3.5-3.5L95.6,27.1z M55.2,4.1
					c1,0,1.8,0.7,1.8,1.7c0,0.9-0.7,1.6-1.6,1.6c-0.9,0-1.7-0.7-1.7-1.6C53.7,4.8,54.3,4.2,55.2,4.1z M27.4,27.5
					C27.4,27.5,27.5,27.5,27.4,27.5C27.5,27.5,27.5,27.5,27.4,27.5c0.9-0.9,2-1.4,3.2-1.3c2.4,0,4.3,2,4.3,4.4c0,0,0,0,0,0
					c0,1.2-0.4,2.3-1.3,3.1c0,0,0,0,0,0c0,0,0,0,0,0c-0.8,0.8-1.9,1.3-3.1,1.3c0,0,0,0,0,0c-2.4,0-4.3-1.9-4.4-4.3
					C26.2,29.5,26.6,28.4,27.4,27.5z M5.8,57c-1,0-1.7-0.8-1.7-1.8c0-0.9,0.7-1.5,1.7-1.5c0.9,0,1.6,0.8,1.6,1.7
					C7.4,56.3,6.7,57,5.8,57z M30.6,99.2l-3.5-3.5l3.6-3.5l3.5,3.5L30.6,99.2z"/>
				<path class="st9" d="M107.3,79c-0.3-0.3-0.7-0.6-1.2-0.9c-1.4-0.7-2.7-1.4-4.1-2.1c-1.7-0.9-3.4-1.7-5.1-2.6
					c-0.4-0.2-0.7-0.6-0.9-1c-2.1-5.3-4.1-10.7-6.2-16c-0.3-0.7-0.8-1.7-2-2.1c-13.7-5.5-27.5-10.9-41.2-16.4
					c-1.2-0.5-2.3-0.3-3.2,0.7c-0.7,0.8-1.6,1.6-2.4,2.5c-0.9,0.9-1.7,1.7-2.5,2.4c-1,0.9-1.2,2-0.7,3.2c5.5,13.7,11,27.4,16.4,41.2
					c0.5,1.2,1.4,1.7,2.1,2c5.3,2,10.7,4.1,16,6.2c0.4,0.1,0.8,0.5,1,0.9c0.9,1.7,1.7,3.4,2.6,5.1c0.7,1.4,1.4,2.7,2.1,4.1
					c0.2,0.5,0.6,0.8,0.9,1.2c0.1,0.1,0.8,0.8,1.5,0.7c0.7,0.1,1.9-1,2.1-1.2c4-4,8.1-8.1,12.1-12.1c4-4,8.1-8.1,12.1-12.1
					c0.3-0.3,1.3-1.5,1.2-2.1C108.1,79.7,107.4,79.1,107.3,79z M74.6,91.4c-0.3,0.3-0.4,0.3-0.8,0.2c-5.2-2-10-3.9-14.6-5.6
					c-0.6-0.2-0.8-0.5-1.1-1.1C53,72.1,47.9,59.3,42.8,46.6c-0.1-0.2-0.1-0.4-0.1-0.5L62.6,66c-2.9,5.2-1.1,10.6,2.4,13.3
					c4,3.2,9.5,3,13.3-0.4c0.1-0.1,0.3-0.3,0.4-0.4c0.1-0.1,0.3-0.3,0.4-0.4c3.4-3.8,3.5-9.3,0.4-13.3c-2.7-3.4-8.1-5.3-13.3-2.4
					L46.1,42.6c0.1,0,0.3,0.1,0.5,0.1C59.3,47.9,72.1,53,84.9,58.1c0.6,0.2,0.9,0.5,1.1,1.1c1.7,4.6,3.6,9.4,5.6,14.6
					c0.2,0.4,0.1,0.5-0.2,0.8c-2.8,2.8-5.6,5.6-8.4,8.4C80.2,85.8,77.4,88.6,74.6,91.4z M65.8,71.4c0-1.5,0.6-2.9,1.6-4c0,0,0,0,0,0
					c0,0,0,0,0,0c1-1,2.5-1.6,4-1.6c1.5,0,2.9,0.6,4,1.7c1.1,1.1,1.6,2.5,1.6,3.9c0,1.5-0.6,2.9-1.6,3.9c-1,1-2.4,1.6-3.9,1.6
					c-1.5,0-2.9-0.6-3.9-1.6C66.4,74.3,65.8,72.9,65.8,71.4z M91.2,91.2L81,101.5l-3.3-6.6l2-2c2.2-2.2,4.4-4.4,6.6-6.6
					c2.2-2.2,4.4-4.4,6.6-6.6l2-2l6.6,3.3L91.2,91.2z"/>
			</g>
		</g>
		<g id="creation">
		</g>
	</g>
</g>
<g id="Mockup_Mobile_Darkmode__x28_MMD_x29_">
	<g id="Contact_me_MMD">
	</g>
	<g id="About_me_MMD">
	</g>
	<g id="Projects_MMD">
		<g id="Programmierung_MMMDL">
		</g>
		<g id="Video_Games_MMD">
		</g>
		<g id="Musik_x2F_Sound_Design_MMD">
		</g>
		<g id="Grafik_Design_MMD">
		</g>
	</g>
	<g id="Startseite_MMD">
	</g>
</g>
<g id="Mockup_Mobile_Lightmode__x28_MML_x29_">
	<g id="Contact_me_MML">
	</g>
	<g id="About_me_MML">
	</g>
	<g id="Projects_MML">
		<g id="Programmierung_MML">
		</g>
		<g id="Video_Games_MML">
		</g>
		<g id="Musik_x2F_Sound_Design_MML">
		</g>
		<g id="Grafik_Design_MML">
		</g>
	</g>
	<g id="Startseite_MML">
	</g>
</g>
<g id="Mockup_Desktop_Darkmode__x28_MDL_x29_">
	<g id="Contact_me_MDL_1_">
	</g>
	<g id="About_me_MDL_1_">
	</g>
	<g id="Projects_MDL_1_">
		<g id="Programmierung_MDL_1_">
		</g>
		<g id="Video_Games_MDL_1_">
		</g>
		<g id="Musik_x2F_Sound_Design_MDL_1_">
		</g>
		<g id="Grafik_Design_MDL_1_">
		</g>
	</g>
	<g id="Startseite_MDL_1_">
	</g>
</g>
<g id="Mockup_Desktop_Lightmode_x28_MDL_x29_">
	<g id="Contact_me_MDL">
	</g>
	<g id="About_me_MDL">
	</g>
	<g id="Projects_MDL">
		<g id="Programmierung_MDL">
		</g>
		<g id="Video_Games_MDL">
		</g>
		<g id="Musik_x2F_Sound_Design_MDL">
		</g>
		<g id="Grafik_Design_MDL">
		</g>
	</g>
	<g id="Startseite_MDL">
	</g>
</g>
<g id="Wireframe_Mobile__x28_WM_x29_">
	<g id="Contact_me_WM">
	</g>
	<g id="About_me_WM">
	</g>
	<g id="Projects_WM">
		<g id="Programmierung_WM">
		</g>
		<g id="Video_Games_WM">
		</g>
		<g id="Musik_x2F_Sound_Design_WM">
		</g>
		<g id="Grafik_Design_WM">
		</g>
	</g>
	<g id="Startseite_WM">
	</g>
</g>
<g id="Wireframe_Desktop__x28_WD_x29_">
	<g id="Contact_me_WD">
	</g>
	<g id="About_me_WD">
	</g>
	<g id="Projects_WD">
		<g id="Programmierung_WD">
		</g>
		<g id="Video_Games_WD">
		</g>
		<g id="Musik_x2F_Sound_Design_WD">
		</g>
		<g id="Grafik_Design_WD">
		</g>
	</g>
	<g id="Startseite_WD">
	</g>
</g>
</svg>
