<?xml version="1.0" encoding="utf-8"?>
<!-- Generator: Adobe Illustrator 22.1.0, SVG Export Plug-In . SVG Version: 6.00 Build 0)  -->
<svg version="1.1" xmlns="http://www.w3.org/2000/svg" xmlns:xlink="http://www.w3.org/1999/xlink" x="0px" y="0px"
	 viewBox="0 0 108 108" style="enable-background:new 0 0 108 108;" xml:space="preserve">
<style type="text/css">
	.st0{fill:#404040;}
	.st1{fill:#6363E0;}
	.st2{fill:#27B46E;}
	.st3{fill:#CC4B4B;}
	.st4{fill:#6CC4CC;}
	.st5{fill:#F5F5F5;}
	.st6{opacity:3.000000e-02;}
	.st7{fill:#F2F2F2;}
	.st8{opacity:0.25;}
	.st9{fill:#FFFFFF;}
	.st10{opacity:0.65;}
	.st11{fill:none;stroke:#FFFFFF;stroke-width:4;stroke-miterlimit:10;}
	.st12{fill:#9E9E9E;}
	.st13{fill:#474747;}
	.st14{fill:none;}
	.st15{fill:none;stroke:#27B46E;stroke-width:5;stroke-miterlimit:10;}
	.st16{fill:none;stroke:#000000;stroke-width:3;stroke-miterlimit:10;}
	.st17{opacity:0.1;}
	.st18{fill:none;stroke:#F5F5F5;stroke-width:4;stroke-miterlimit:10;}
	.st19{fill:url(#SVGID_1_);stroke:#CC4B4B;stroke-width:2.9139;stroke-miterlimit:10;}
	.st20{fill:none;stroke:#FFFFFF;stroke-width:4.1883;stroke-miterlimit:10;}
	.st21{fill:url(#SVGID_2_);stroke:#6363E0;stroke-width:2.9139;stroke-miterlimit:10;}
	.st22{fill:#CECECE;}
	.st23{fill:url(#SVGID_3_);stroke:#27B46E;stroke-width:2.9139;stroke-miterlimit:10;}
	.st24{fill:url(#SVGID_4_);stroke:#6CC4CC;stroke-width:2.9113;stroke-miterlimit:10;}
	.st25{clip-path:url(#SVGID_6_);fill:#CC4B4B;}
	.st26{clip-path:url(#SVGID_6_);fill:#6CC4CC;}
	.st27{clip-path:url(#SVGID_6_);fill:#27B46E;}
	.st28{clip-path:url(#SVGID_6_);fill:#6363E0;}
	.st29{fill:#EAEAEA;}
	.st30{fill:none;stroke:#404040;stroke-width:4;stroke-miterlimit:10;}
	.st31{opacity:0.39;}
	.st32{clip-path:url(#SVGID_8_);fill:#CC4B4B;}
	.st33{clip-path:url(#SVGID_8_);fill:#6CC4CC;}
	.st34{clip-path:url(#SVGID_8_);fill:#27B46E;}
	.st35{clip-path:url(#SVGID_8_);fill:#6363E0;}
	.st36{fill:none;stroke:#CC4B4B;stroke-width:5;stroke-miterlimit:10;}
	.st37{fill:url(#SVGID_9_);stroke:#CC4B4B;stroke-width:2.9139;stroke-miterlimit:10;}
	.st38{fill:none;stroke:#6363E0;stroke-width:5;stroke-miterlimit:10;}
	.st39{fill:url(#SVGID_10_);stroke:#6363E0;stroke-width:2.9139;stroke-miterlimit:10;}
	.st40{fill:url(#SVGID_11_);stroke:#27B46E;stroke-width:2.9139;stroke-miterlimit:10;}
	.st41{fill:url(#SVGID_12_);stroke:#6CC4CC;stroke-width:2.9113;stroke-miterlimit:10;}
	.st42{display:none;}
	.st43{display:inline;}
	.st44{clip-path:url(#SVGID_14_);}
	.st45{fill:none;stroke:#6CC4CC;stroke-width:5;stroke-miterlimit:10;}
	.st46{stroke:#FFFFFF;stroke-width:23;stroke-miterlimit:10;}
	.st47{display:inline;fill:#6CC4CC;}
	.st48{fill:none;stroke:#000000;stroke-width:2;stroke-miterlimit:10;}
	.st49{opacity:0.55;}
	.st50{opacity:0.35;}
	.st51{fill:none;stroke:#000000;stroke-width:2.1305;stroke-miterlimit:10;}
	.st52{fill:none;stroke:#000000;stroke-width:0.8467;stroke-miterlimit:10;}
	.st53{opacity:0.33;fill:none;stroke:#000000;stroke-width:0.8467;stroke-miterlimit:10;}
	.st54{fill:none;stroke:#000000;stroke-miterlimit:10;}
	.st55{display:inline;fill:none;stroke:#000000;stroke-width:0.739;stroke-miterlimit:10;}
	.st56{fill:none;stroke:#000000;stroke-width:1.0965;stroke-miterlimit:10;}
	.st57{display:inline;fill:none;stroke:#000000;stroke-miterlimit:10;}
	.st58{fill:none;stroke:#000000;stroke-width:4;stroke-miterlimit:10;}
</style>
<g id="Farben_und_schriften">
	<g id="colors">
	</g>
	<g id="Responsive_Grid">
	</g>
	<g id="icons">
		<g id="export">
			<rect x="0" y="0" width="108" height="108"/>
		</g>
		<g id="creation">
			<path class="st9" d="M106,0.8c0-0.4-0.4-0.8-0.9-0.7L35.8,17.6c-1.4,0.4-1.7,1.2-1.7,2.3l0,52.1c-3.1-2.3-6.4-3.6-9.8-4h-4.2
				c-0.8,0.1-1.7,0.2-2.6,0.4C8.4,70.5,2.4,77.9,2,86.9v0.2c0,1.2,0,2.5,0.2,3.8c0.8,5.7,4.2,10.8,9.4,14c5.2,3.2,11.4,3.8,16.8,1.9
				c8.3-3,13.5-10.4,13.5-19.4c0-6.5,0-13,0-19.4c0-8.3-0.1-13.7-0.1-22c0-0.7,0.1-0.8,0.8-1c12.8-3.2,25.7-6.5,38.5-9.7l16.1-4.1
				c0.4-0.1,0.9,0.2,0.9,0.7v28.6c-5.1-3.8-10.6-5-16.5-3.6c-10.5,2.5-16.8,11.7-15.3,22.6c0.8,5.7,4.2,10.8,9.4,14
				c5.2,3.2,11.4,3.8,16.8,1.9c8.3-3,13.5-10.4,13.5-19.4c0-17.7,0-35.4,0-53.2L106,0.8z M21.8,100.1c-6.9-0.2-12.2-5.7-12.1-12.6
				c0.1-6.6,5.8-12,12.3-11.9c3.4,0.1,6.5,1.4,8.7,3.8c2.3,2.4,3.5,5.5,3.4,8.8C34,94.8,28.4,100.2,21.8,100.1z M97.6,23L42.2,37
				c-0.2,0-0.3-0.1-0.3-0.2V24.6c0-0.3,0.2-0.6,0.5-0.7l54.9-13.9c0.4-0.1,0.9,0.2,0.9,0.7v11.6C98.2,22.6,98,22.9,97.6,23z
				 M85.9,88.5c-6.9-0.2-12.2-5.7-12.1-12.6c0.1-6.6,5.8-12,12.3-11.9c3.4,0.1,6.5,1.4,8.7,3.8c2.3,2.4,3.5,5.5,3.4,8.8
				C98.1,83.2,92.4,88.6,85.9,88.5z"/>
		</g>
	</g>
</g>
<g id="Mockup_Mobile_Darkmode__x28_MMD_x29_">
	<g id="Contact_me_MMD">
	</g>
	<g id="About_me_MMD">
	</g>
	<g id="Projects_MMD">
		<g id="Programmierung_MMMDL">
		</g>
		<g id="Video_Games_MMD">
		</g>
		<g id="Musik_x2F_Sound_Design_MMD">
		</g>
		<g id="Grafik_Design_MMD">
		</g>
	</g>
	<g id="Startseite_MMD">
	</g>
</g>
<g id="Mockup_Mobile_Lightmode__x28_MML_x29_">
	<g id="Contact_me_MML">
	</g>
	<g id="About_me_MML">
	</g>
	<g id="Projects_MML">
		<g id="Programmierung_MML">
		</g>
		<g id="Video_Games_MML">
		</g>
		<g id="Musik_x2F_Sound_Design_MML">
		</g>
		<g id="Grafik_Design_MML">
		</g>
	</g>
	<g id="Startseite_MML">
	</g>
</g>
<g id="Mockup_Desktop_Darkmode__x28_MDL_x29_">
	<g id="Contact_me_MDL_1_">
	</g>
	<g id="About_me_MDL_1_">
	</g>
	<g id="Projects_MDL_1_">
		<g id="Programmierung_MDL_1_">
		</g>
		<g id="Video_Games_MDL_1_">
		</g>
		<g id="Musik_x2F_Sound_Design_MDL_1_">
		</g>
		<g id="Grafik_Design_MDL_1_">
		</g>
	</g>
	<g id="Startseite_MDL_1_">
	</g>
</g>
<g id="Mockup_Desktop_Lightmode_x28_MDL_x29_">
	<g id="Contact_me_MDL">
	</g>
	<g id="About_me_MDL">
	</g>
	<g id="Projects_MDL">
		<g id="Programmierung_MDL">
		</g>
		<g id="Video_Games_MDL">
		</g>
		<g id="Musik_x2F_Sound_Design_MDL">
		</g>
		<g id="Grafik_Design_MDL">
		</g>
	</g>
	<g id="Startseite_MDL">
	</g>
</g>
<g id="Wireframe_Mobile__x28_WM_x29_">
	<g id="Contact_me_WM">
	</g>
	<g id="About_me_WM">
	</g>
	<g id="Projects_WM">
		<g id="Programmierung_WM">
		</g>
		<g id="Video_Games_WM">
		</g>
		<g id="Musik_x2F_Sound_Design_WM">
		</g>
		<g id="Grafik_Design_WM">
		</g>
	</g>
	<g id="Startseite_WM">
	</g>
</g>
<g id="Wireframe_Desktop__x28_WD_x29_">
	<g id="Contact_me_WD">
	</g>
	<g id="About_me_WD">
	</g>
	<g id="Projects_WD">
		<g id="Programmierung_WD">
		</g>
		<g id="Video_Games_WD">
		</g>
		<g id="Musik_x2F_Sound_Design_WD">
		</g>
		<g id="Grafik_Design_WD">
		</g>
	</g>
	<g id="Startseite_WD">
	</g>
</g>
</svg>
