<?xml version="1.0" encoding="utf-8"?>
<!-- Generator: Adobe Illustrator 22.1.0, SVG Export Plug-In . SVG Version: 6.00 Build 0)  -->
<svg version="1.1" xmlns="http://www.w3.org/2000/svg" xmlns:xlink="http://www.w3.org/1999/xlink" x="0px" y="0px"
	 viewBox="0 0 108 108" style="enable-background:new 0 0 108 108;" xml:space="preserve">
<style type="text/css">
	.st0{fill:#404040;}
	.st1{fill:#6363E0;}
	.st2{fill:#27B46E;}
	.st3{fill:#CC4B4B;}
	.st4{fill:#6CC4CC;}
	.st5{fill:#F5F5F5;}
	.st6{opacity:3.000000e-02;}
	.st7{fill:#F2F2F2;}
	.st8{opacity:0.25;}
	.st9{fill:#FFFFFF;}
	.st10{opacity:0.65;}
	.st11{fill:none;stroke:#FFFFFF;stroke-width:4;stroke-miterlimit:10;}
	.st12{fill:#9E9E9E;}
	.st13{fill:#474747;}
	.st14{fill:none;}
	.st15{fill:none;stroke:#27B46E;stroke-width:5;stroke-miterlimit:10;}
	.st16{fill:none;stroke:#000000;stroke-width:3;stroke-miterlimit:10;}
	.st17{opacity:0.1;}
	.st18{fill:none;stroke:#F5F5F5;stroke-width:4;stroke-miterlimit:10;}
	.st19{fill:url(#SVGID_1_);stroke:#CC4B4B;stroke-width:2.9139;stroke-miterlimit:10;}
	.st20{fill:none;stroke:#FFFFFF;stroke-width:4.1883;stroke-miterlimit:10;}
	.st21{fill:url(#SVGID_2_);stroke:#6363E0;stroke-width:2.9139;stroke-miterlimit:10;}
	.st22{fill:#CECECE;}
	.st23{fill:url(#SVGID_3_);stroke:#27B46E;stroke-width:2.9139;stroke-miterlimit:10;}
	.st24{fill:url(#SVGID_4_);stroke:#6CC4CC;stroke-width:2.9113;stroke-miterlimit:10;}
	.st25{clip-path:url(#SVGID_6_);fill:#CC4B4B;}
	.st26{clip-path:url(#SVGID_6_);fill:#6CC4CC;}
	.st27{clip-path:url(#SVGID_6_);fill:#27B46E;}
	.st28{clip-path:url(#SVGID_6_);fill:#6363E0;}
	.st29{fill:#EAEAEA;}
	.st30{fill:none;stroke:#404040;stroke-width:4;stroke-miterlimit:10;}
	.st31{opacity:0.39;}
	.st32{clip-path:url(#SVGID_8_);fill:#CC4B4B;}
	.st33{clip-path:url(#SVGID_8_);fill:#6CC4CC;}
	.st34{clip-path:url(#SVGID_8_);fill:#27B46E;}
	.st35{clip-path:url(#SVGID_8_);fill:#6363E0;}
	.st36{fill:none;stroke:#CC4B4B;stroke-width:5;stroke-miterlimit:10;}
	.st37{fill:url(#SVGID_9_);stroke:#CC4B4B;stroke-width:2.9139;stroke-miterlimit:10;}
	.st38{fill:none;stroke:#6363E0;stroke-width:5;stroke-miterlimit:10;}
	.st39{fill:url(#SVGID_10_);stroke:#6363E0;stroke-width:2.9139;stroke-miterlimit:10;}
	.st40{fill:url(#SVGID_11_);stroke:#27B46E;stroke-width:2.9139;stroke-miterlimit:10;}
	.st41{fill:url(#SVGID_12_);stroke:#6CC4CC;stroke-width:2.9113;stroke-miterlimit:10;}
	.st42{display:none;}
	.st43{display:inline;}
	.st44{clip-path:url(#SVGID_14_);}
	.st45{fill:none;stroke:#6CC4CC;stroke-width:5;stroke-miterlimit:10;}
	.st46{stroke:#FFFFFF;stroke-width:23;stroke-miterlimit:10;}
	.st47{display:inline;fill:#6CC4CC;}
	.st48{fill:none;stroke:#000000;stroke-width:2;stroke-miterlimit:10;}
	.st49{opacity:0.55;}
	.st50{opacity:0.35;}
	.st51{fill:none;stroke:#000000;stroke-width:2.1305;stroke-miterlimit:10;}
	.st52{fill:none;stroke:#000000;stroke-width:0.8467;stroke-miterlimit:10;}
	.st53{opacity:0.33;fill:none;stroke:#000000;stroke-width:0.8467;stroke-miterlimit:10;}
	.st54{fill:none;stroke:#000000;stroke-miterlimit:10;}
	.st55{display:inline;fill:none;stroke:#000000;stroke-width:0.739;stroke-miterlimit:10;}
	.st56{fill:none;stroke:#000000;stroke-width:1.0965;stroke-miterlimit:10;}
	.st57{display:inline;fill:none;stroke:#000000;stroke-miterlimit:10;}
	.st58{fill:none;stroke:#000000;stroke-width:4;stroke-miterlimit:10;}
</style>
<g id="Farben_und_schriften">
	<g id="colors">
	</g>
	<g id="Responsive_Grid">
	</g>
	<g id="icons">
		<g id="export">
			<rect x="0" y="0" width="108" height="108"/>
			<path class="st9" d="M96.5,0h-85C5.1,0,0,5.2,0,11.5v85c0,6.4,5.1,11.5,11.5,11.5h85c6.4,0,11.5-5.1,11.5-11.5v-85
				C108,5.2,102.9,0,96.5,0z M33.3,92.3c0,2.8-0.9,3.6-3.7,3.6c-3.5,0-7,0-10.4,0c-1.7,0-3.3-1.3-3.5-3c-0.1-0.6-0.1-1.2-0.1-1.9
				c0-15.5,0-30.9,0-46.4c0-0.9,0.1-1.8,0.2-2.8c0.2-1,1-1.9,2-2.1l12.1-0.2c2.3,0.2,3.2,1.2,3.2,3.4c0,8.3,0,16.5,0,24.8
				C33.3,76.1,33.3,84.2,33.3,92.3z M24.6,34.8c-8,0-14.1-8.1-10.3-16.5c1.3-2.8,3.8-5,6.8-5.8c7.9-2.1,14.7,3.4,14.7,10.9
				C35.9,29.7,30.9,34.8,24.6,34.8z M93,96c-3.5,0-7,0-10.5,0c-3.3,0-4-0.7-4-4.1c0-8.6,0-17.3,0-25.9c0-2.8-0.4-5.6-1.9-8
				c-2-3.4-6.4-4.8-10.5-3.4c-3.1,1-5,3.4-5.8,6.3c-0.7,2.2-1.1,4.5-1.2,6.8C59,76,59.1,84.3,59.1,92.6c0,2.7-0.7,3.4-3.4,3.4
				c-3.7,0-7.3,0-11,0c-1.7,0-3.1-1.4-3.1-3.1c0-16.6,0-33.2,0-49.8c0-2.3,0.8-3.2,3-3.3c3.8-0.1,7.6-0.1,11.4,0
				c2.3,0.1,3,0.9,3,3.2c0,1.1,0,2.2,0,3.3c0.1,0,0.2,0,0.4,0.1c0.2-0.2,0.4-0.3,0.6-0.5c3.2-4.3,7.6-6.3,12.7-6.7
				c3.9-0.3,7.7-0.2,11.5,1.1c5.1,1.8,8.2,5.5,10.1,10.4c1.4,3.5,2,7.3,2.1,11c0.1,10.3,0.2,20.6,0.2,30.9C96.6,95.1,95.7,96,93,96z
				"/>
		</g>
		<g id="creation">
		</g>
	</g>
</g>
<g id="Mockup_Mobile_Darkmode__x28_MMD_x29_">
	<g id="Contact_me_MMD">
	</g>
	<g id="About_me_MMD">
	</g>
	<g id="Projects_MMD">
		<g id="Programmierung_MMMDL">
		</g>
		<g id="Video_Games_MMD">
		</g>
		<g id="Musik_x2F_Sound_Design_MMD">
		</g>
		<g id="Grafik_Design_MMD">
		</g>
	</g>
	<g id="Startseite_MMD">
	</g>
</g>
<g id="Mockup_Mobile_Lightmode__x28_MML_x29_">
	<g id="Contact_me_MML">
	</g>
	<g id="About_me_MML">
	</g>
	<g id="Projects_MML">
		<g id="Programmierung_MML">
		</g>
		<g id="Video_Games_MML">
		</g>
		<g id="Musik_x2F_Sound_Design_MML">
		</g>
		<g id="Grafik_Design_MML">
		</g>
	</g>
	<g id="Startseite_MML">
	</g>
</g>
<g id="Mockup_Desktop_Darkmode__x28_MDL_x29_">
	<g id="Contact_me_MDL_1_">
	</g>
	<g id="About_me_MDL_1_">
	</g>
	<g id="Projects_MDL_1_">
		<g id="Programmierung_MDL_1_">
		</g>
		<g id="Video_Games_MDL_1_">
		</g>
		<g id="Musik_x2F_Sound_Design_MDL_1_">
		</g>
		<g id="Grafik_Design_MDL_1_">
		</g>
	</g>
	<g id="Startseite_MDL_1_">
	</g>
</g>
<g id="Mockup_Desktop_Lightmode_x28_MDL_x29_">
	<g id="Contact_me_MDL">
	</g>
	<g id="About_me_MDL">
	</g>
	<g id="Projects_MDL">
		<g id="Programmierung_MDL">
		</g>
		<g id="Video_Games_MDL">
		</g>
		<g id="Musik_x2F_Sound_Design_MDL">
		</g>
		<g id="Grafik_Design_MDL">
		</g>
	</g>
	<g id="Startseite_MDL">
	</g>
</g>
<g id="Wireframe_Mobile__x28_WM_x29_">
	<g id="Contact_me_WM">
	</g>
	<g id="About_me_WM">
	</g>
	<g id="Projects_WM">
		<g id="Programmierung_WM">
		</g>
		<g id="Video_Games_WM">
		</g>
		<g id="Musik_x2F_Sound_Design_WM">
		</g>
		<g id="Grafik_Design_WM">
		</g>
	</g>
	<g id="Startseite_WM">
	</g>
</g>
<g id="Wireframe_Desktop__x28_WD_x29_">
	<g id="Contact_me_WD">
	</g>
	<g id="About_me_WD">
	</g>
	<g id="Projects_WD">
		<g id="Programmierung_WD">
		</g>
		<g id="Video_Games_WD">
		</g>
		<g id="Musik_x2F_Sound_Design_WD">
		</g>
		<g id="Grafik_Design_WD">
		</g>
	</g>
	<g id="Startseite_WD">
	</g>
</g>
</svg>
